<?xml version="1.0" encoding="UTF-8"?>
<svg id="Layer_1" data-name="Layer 1" xmlns="http://www.w3.org/2000/svg" viewBox="0 0 82.09 301.76">
  <defs>
    <style>
      .cls-1 {
        fill: none;
      }

      .cls-1, .cls-2 {
        stroke: #121316;
        stroke-miterlimit: 10;
        stroke-width: .5px;
      }

      .cls-2 {
        fill: #121316;
      }
    </style>
  </defs>
  <rect class="cls-1" x="19.79" y=".25" width="42.5" height="5"/>
  <line class="cls-1" x1="19.79" y1="5.25" x2=".25" y2="19.31"/>
  <line class="cls-1" x1="62.29" y1="5.25" x2="81.84" y2="19.31"/>
  <g>
    <line class="cls-1" x1="41.04" y1="216.06" x2="41.04" y2="234.76"/>
    <circle class="cls-2" cx="41.04" cy="239.15" r="4.4"/>
    <line class="cls-1" x1="41.04" y1="301.76" x2="41.04" y2="255.94"/>
    <circle class="cls-2" cx="41.04" cy="253.59" r="2.26"/>
    <rect class="cls-1" x="19.79" y="203.28" width="42.5" height="5"/>
    <g>
      <rect class="cls-1" x=".25" y="19.27" width="81.59" height="170"/>
      <rect class="cls-1" x="16.04" y="19.27" width="50" height="170"/>
      <rect class="cls-1" x="23.54" y="19.27" width="35" height="170"/>
      <rect class="cls-1" x="8.54" y="19.27" width="65" height="170"/>
    </g>
    <line class="cls-1" x1=".25" y1="189.31" x2="19.79" y2="203.28"/>
    <line class="cls-1" x1="81.84" y1="189.31" x2="62.29" y2="203.28"/>
    <line class="cls-1" x1="16.04" y1="189.31" x2="23.54" y2="203.37"/>
    <line class="cls-1" x1="66.04" y1="189.31" x2="58.54" y2="203.37"/>
  </g>
  <line class="cls-1" x1="16.04" y1="19.31" x2="23.54" y2="5.25"/>
  <line class="cls-1" x1="66.04" y1="19.31" x2="58.54" y2="5.25"/>
</svg>